<?xml version='1.0' encoding='utf-8'?>
<svg xmlns="http://www.w3.org/2000/svg" width="1920" height="1080" viewBox="0 0 1920 1080" data-theme="light">
  <style>
        @font-face {
            font-family: 'Inter';
            src: url('assets/fonts/Inter-Regular.ttf') format('truetype');
            font-weight: 400;
            font-style: normal;
            font-display: swap;
        }
        @font-face {
            font-family: 'Inter';
            src: url('assets/fonts/Inter-Bold.ttf') format('truetype');
            font-weight: 600;
            font-style: normal;
            font-display: swap;
        }
        @font-face {
            font-family: 'Inter';
            src: url('assets/fonts/Inter-Bold.ttf') format('truetype');
            font-weight: 800;
            font-style: normal;
            font-display: swap;
        }
        
:root {
    --background: #f8fafc;
    --panel: #ffffff;
    --primary-text: #0f172a;
    --muted-text: #64748b;
    --inverse-text: #ffffff;
    --border: #e2e8f0;
    --shadow-color: #000000;
    --icon-pad-bg: #1e293b;
    --art-glow: #0891b2;
    --art-glow-opacity: 0.10;
    --art-sheen: #ffffff;
    --art-sheen-opacity: 0.34;
    --art-shadow: #0f172a;
    --art-shadow-opacity: 0.14;
    --art-muted-line: #94a3b8;
    --art-panel-tint: #f1f5f9;
    --font-family: 'Inter', 'Segoe UI', 'Kalam', Roboto, Helvetica, Arial, sans-serif;
    --radius-xl: 16px;
    --font-family-headline: 'Inter', 'Segoe UI', 'Kalam', Roboto, Helvetica, Arial, sans-serif;
    --font-family-body: 'Inter', 'Segoe UI', 'Kalam', Roboto, Helvetica, Arial, sans-serif;
    --font-heading: 'Inter', 'Segoe UI', 'Kalam', Roboto, Helvetica, Arial, sans-serif;
    --font-body: 'Inter', 'Segoe UI', 'Kalam', Roboto, Helvetica, Arial, sans-serif;
    --font-size-h1: 56px;
    --font-size-h2: 40px;
    --font-size-h3: 28px;
    --font-size-body: 24px;
    --font-size-caption: 18px;
    --secondary-text: var(--muted-text);
    --panel-border: var(--border);
    --font-weight-normal: 400;
    --font-weight-medium: 500;
    --font-weight-semibold: 600;
    --font-weight-bold: 700;
    --spacing-gutter-pct: 0.07;
    --spacing-top-pct: 0.15;
    --spacing-bottom-pct: 0.07;
    --spacing-title-y-pct: 0.055;
    --accent-1: #d97706;
    --accent-2: #ea580c;
    --accent-3: #dc2626;
    --accent-4: #65a30d;
    --accent-5: #16a34a;
    --accent-6: #92400e;
}
:root[data-theme="dark"] {
    --background: #0f172a;
    --panel: #1e293b;
    --primary-text: #f1f5f9;
    --muted-text: #94a3b8;
    --inverse-text: #0f172a;
    --border: #334155;
    --shadow-color: #000000;
    --icon-pad-bg: #1e293b;
    --art-glow: #7dd3fc;
    --art-glow-opacity: 0.18;
    --art-sheen: #ffffff;
    --art-sheen-opacity: 0.18;
    --art-shadow: #000000;
    --art-shadow-opacity: 0.28;
    --art-muted-line: #64748b;
    --art-panel-tint: #1e293b;
    --accent-1: #fbbf24;
    --accent-2: #fb923c;
    --accent-3: #f87171;
    --accent-4: #a3e635;
    --accent-5: #4ade80;
    --accent-6: #d4a574;
}
:root[data-theme="light"] {
    --background: #f8fafc;
    --panel: #ffffff;
    --primary-text: #0f172a;
    --muted-text: #64748b;
    --inverse-text: #ffffff;
    --border: #e2e8f0;
    --shadow-color: #000000;
    --icon-pad-bg: #1e293b;
    --art-glow: #0891b2;
    --art-glow-opacity: 0.10;
    --art-sheen: #ffffff;
    --art-sheen-opacity: 0.34;
    --art-shadow: #0f172a;
    --art-shadow-opacity: 0.14;
    --art-muted-line: #94a3b8;
    --art-panel-tint: #f1f5f9;
    --accent-1: #d97706;
    --accent-2: #ea580c;
    --accent-3: #dc2626;
    --accent-4: #65a30d;
    --accent-5: #16a34a;
    --accent-6: #92400e;
}</style>
  <rect x="0" y="0" width="1.92E+3" height="1.08E+3" fill="#252a34" stroke="none" id="programmatic_background"/>
  <line id="HEADER_DECOR" x1="960.0" x2="1080.0" y1="135.0" y2="135.0" stroke="var(--accent-1)" stroke-width="6" stroke-linecap="round"/>
  <defs>
    <pattern id="svgaa1ba470-napkin-hatch" patternUnits="userSpaceOnUse" width="12" height="12">
      <path d="M -3 12 L 12 -3 M 0 15 L 15 0" fill="none" stroke="var(--primary-text)" stroke-width="1" stroke-opacity="0.05"/>
    </pattern>
    <filter id="svgaa1ba470-shadow" x="-30%" y="-30%" width="160%" height="160%">
      <feDropShadow dx="0" dy="2" stdDeviation="3" flood-color="#000000" flood-opacity="0.08"/>
      <feDropShadow dx="0" dy="6" stdDeviation="10" flood-color="#000000" flood-opacity="0.12"/>
    </filter>
    <radialGradient id="svgaa1ba470-universal-edge-vignette" cx="50%" cy="50%" r="72%">
      <stop offset="0%" stop-color="var(--background)" stop-opacity="0"/>
      <stop offset="72%" stop-color="var(--background)" stop-opacity="0.12"/>
      <stop offset="100%" stop-color="var(--primary-text)" stop-opacity="0.08"/>
    </radialGradient>
    <linearGradient id="svgaa1ba470-universal-surface-sheen" x1="0%" y1="0%" x2="100%" y2="100%">
      <stop offset="0%" stop-color="var(--art-sheen)" stop-opacity="var(--art-sheen-opacity)"/>
      <stop offset="46%" stop-color="var(--art-sheen)" stop-opacity="0.035"/>
      <stop offset="100%" stop-color="var(--art-panel-tint)" stop-opacity="0.14"/>
    </linearGradient>
    <radialGradient id="svgaa1ba470-universal-icon-aura" cx="50%" cy="42%" r="64%">
      <stop offset="0%" stop-color="var(--art-glow)" stop-opacity="var(--art-glow-opacity)"/>
      <stop offset="100%" stop-color="var(--background)" stop-opacity="0"/>
    </radialGradient>
    <linearGradient id="svgaa1ba470-fact-card-sheen" x1="0%" y1="0%" x2="100%" y2="100%">
      <stop offset="0%" stop-color="var(--inverse-text)" stop-opacity="0.18"/>
      <stop offset="54%" stop-color="var(--inverse-text)" stop-opacity="0.04"/>
      <stop offset="100%" stop-color="var(--background)" stop-opacity="0.14"/>
    </linearGradient>
    <radialGradient id="svgaa1ba470-fact-icon-glow" cx="50%" cy="42%" r="62%">
      <stop offset="0%" stop-color="var(--inverse-text)" stop-opacity="0.22"/>
      <stop offset="100%" stop-color="var(--background)" stop-opacity="0"/>
    </radialGradient>
    <filter id="svgaa1ba470-text-glow" x="-20%" y="-20%" width="140%" height="140%">
      <feDropShadow dx="0" dy="0" stdDeviation="2" flood-color="#000000" flood-opacity="0.4"/>
    </filter>
    <marker id="svgaa1ba470-arrowhead" markerWidth="10" markerHeight="7" refX="9" refY="3.5" orient="auto" markerUnits="strokeWidth">
      <polygon points="0 0, 10 3.5, 0 7" fill="var(--muted-text)" opacity="0.6"/>
    </marker>
  </defs>
  <rect width="100%" height="100%" fill="var(--background)" id="CANVAS_BG"/>
  <rect width="100%" height="100%" fill="url(#svgaa1ba470-napkin-hatch)"/>
  <rect id="UNIVERSAL_EDGE_VIGNETTE" width="100%" height="100%" fill="url(#svgaa1ba470-universal-edge-vignette)" opacity="0.62"/>
  <line x1="960" y1="178" x2="960" y2="986" stroke="var(--muted-text)" stroke-width="5" stroke-opacity="0.10" stroke-linecap="round"/>
  <path d="M 360 178 C 620 152 1300 152 1560 178" fill="none" stroke="var(--primary-text)" stroke-width="2" stroke-opacity="0.12" stroke-linecap="round"/>
  <text id="TITLE" x="960.0" y="59" font-size="72" font-weight="800" fill="#0f172a" style="font-size: 60px; font-family: Inter, Segoe UI, Kalam, Roboto, Helvetica, Arial, sans-serif; font-weight: 700; letter-spacing:-1.2px;" text-anchor="middle" data-final-font-size="60">
    <tspan x="960.0" dy="68.00px">NASA UAP Study Baseline Requirements</tspan>
  </text>
  <rect id="TITLE_FRAME" x="134" y="59" width="1652" height="103" fill="none"/>
  <g transform="translate(960.0, 220.0)">
    <rect id="ITEM_1_BG" x="-600" y="-64" width="1200" height="184" rx="18" fill="var(--accent-3)" stroke="var(--accent-1)" filter="url(#svgaa1ba470-shadow)" stroke-width="3" fill-opacity="1.0"/>
    <g transform="translate(-480.0, 0.0)">
      <circle r="45" fill="var(--background)" opacity="0.3"/>
      <circle id="ITEM_1_PAD" cx="0" cy="0" r="42" fill="var(--icon-pad-bg)" stroke="var(--primary-text)" opacity="0.9" fill-opacity="0.9" stroke-width="2"/>
      <circle id="ITEM_1_PAD_INNER" cx="0" cy="0" r="32.76" fill="var(--accent-3)" fill-opacity="0.22"/>
      <circle cx="0" cy="0" r="34" fill="none" stroke="var(--accent-1)" stroke-width="3" stroke-dasharray="6 4"/>
      <g id="ITEM_1_ICON" transform="translate(-34, -34)" data-icon-size="68" stroke-dasharray="6 4">
        <g transform="translate(0.0,0.0) scale(2.8333333333333335)" vector-effect="non-scaling-stroke" stroke-width="2.53" stroke-linecap="round" stroke-linejoin="round" stroke-opacity="1.0">
          <path fill="none" fill-rule="evenodd" d="M8.21772 19.7548c-0.87886 1.015 -1.66921 2.1034 -2.36239 3.2533 -0.27027 0.5105 0.36037 0.8008 0.61062 0.3703 0.08008 0 3.24328 -3.7838 3.64365 -4.2643 0.3404 -0.7007 0 -0.9209 -0.61058 -0.5605 -0.61062 0.3603 -1.23125 1.1511 -1.2813 1.2012Z" clip-rule="evenodd" vector-effect="non-scaling-stroke" stroke="#f1f5f9"/>
          <path fill="none" fill-rule="evenodd" d="M13.4431 18.003c0.6406 -0.5305 0.6907 -1.8318 0.3904 -3.1131 1.4214 -0.1201 3.4234 -0.1702 3.3834 -1.6917 0 -1.7818 -2.1622 -1.922 -3.8139 -1.8819 -0.0911 0.0026 -0.1777 0.0406 -0.2412 0.1061 -0.0636 0.0654 -0.0991 0.153 -0.0991 0.2442 0 0.5506 0.6507 0.2202 1.9119 0.4705 0.6006 0.1201 1.2113 0.3303 1.3214 0.9309 0.1101 0.6006 -0.5306 0.5906 -1.001 0.6507 -2.3709 0.1486 -4.7493 0.1285 -7.11723 -0.0601 -0.40041 0 -0.37038 -0.6606 -0.12012 -0.8408 0.93094 -0.6607 3.00305 -0.5506 4.09415 -0.5606 0.0388 0.0092 0.079 0.0107 0.1183 0.0044 0.0394 -0.0064 0.0771 -0.0204 0.111 -0.0413 0.0339 -0.0209 0.0634 -0.0483 0.0868 -0.0806 0.0233 -0.0323 0.0401 -0.0689 0.0493 -0.1077s0.0106 -0.079 0.0043 -0.1184c-0.0063 -0.0393 -0.0204 -0.077 -0.0413 -0.1109 -0.0209 -0.034 -0.0483 -0.0634 -0.0806 -0.0868 -0.0323 -0.0233 -0.0689 -0.0401 -0.1077 -0.0493 -2.2122 -0.1401 -5.57561 -0.5305 -5.40544 1.8219 0.01114 0.3003 0.12753 0.5873 0.32882 0.8105 0.20129 0.2233 0.47466 0.3686 0.7723 0.4107 0.63063 0.0801 1.27128 0.1301 1.92194 0.1702l-0.08008 0.6306c-0.06006 0.6607 -0.71072 1.8519 0.33036 2.5226 0 0 0.3804 0.2702 0.4504 0.1801 -0.2884 0.7706 -0.4964 1.569 -0.6206 2.3824 -0.02807 1.0298 0.0188 2.0602 0.1401 3.0832 0.0155 0.0768 0.0533 0.1474 0.1085 0.203 0.0553 0.0556 0.1256 0.0938 0.2024 0.1098 0.0767 0.016 0.1565 0.0091 0.2293 -0.0198 0.0729 -0.029 0.1357 -0.0786 0.1806 -0.1429 0.1902 -0.3403 0.4704 -5.3954 0.4604 -5.4855 0.2929 0.0303 0.5881 0.0303 0.8809 0 0 0.08 0.3504 5.2653 0.4705 5.4855 0.0449 0.0643 0.1077 0.1139 0.1805 0.1429 0.0729 0.0289 0.1526 0.0358 0.2294 0.0198 0.0767 -0.016 0.1471 -0.0542 0.2024 -0.1098 0.0552 -0.0556 0.0929 -0.1262 0.1084 -0.203 0.3274 -1.8172 0.1544 -3.6891 -0.5005 -5.4155 0.2097 -0.0255 0.4059 -0.1166 0.5606 -0.2603Zm-0.2403 -1.2713c-0.1501 0.7508 -2.4825 0.5106 -2.5625 0.3104 -0.1702 -0.3804 0 -1.0011 0 -1.5116v-0.5906c0.8069 0.0415 1.6155 0.0415 2.4224 0 0.156 0.5768 0.2036 1.1776 0.1401 1.7718v0.02Z" clip-rule="evenodd" vector-effect="non-scaling-stroke" stroke="#f1f5f9"/>
          <path fill="none" fill-rule="evenodd" d="M16.456 21.7769c-0.2202 -0.3003 -0.3904 -0.6206 -0.5805 -0.941 -0.4422 -0.8521 -1.0888 -1.5812 -1.8819 -2.1221 -0.5706 -0.5406 -0.7108 0.0801 -0.4605 0.6907 0.6242 1.0695 1.3518 2.0754 2.1722 3.003 0.5205 0.4905 1.2312 1.5015 1.6016 1.2012 0.3704 -0.3003 -0.5706 -1.4314 -0.8509 -1.8318Z" clip-rule="evenodd" vector-effect="non-scaling-stroke" stroke="#f1f5f9"/>
          <path fill="none" fill-rule="evenodd" d="M18.6583 2.98785c-0.3404 -1.1912 -2.002 -0.56057 -2.7328 -0.80081 0 -0.09009 -0.1201 -0.29029 -0.1401 -0.37037 -0.0276 -0.44221 -0.1433 -0.87445 -0.3404 -1.271288 -0.1035 -0.166261 -0.2535 -0.298506 -0.4314 -0.380353 -0.1779 -0.0818473 -0.376 -0.1097013 -0.5696 -0.0801122 -0.0902 0 -0.1768 0.0358572 -0.2406 0.0996842 -0.0639 0.063827 -0.0997 0.150395 -0.0997 0.24066 0 0.090265 0.0358 0.176833 0.0997 0.240659 0.0638 0.063827 0.1504 0.099685 0.2406 0.099685 0.7708 -0.050051 0.2703 1.661675 1.001 2.002025 0.6204 0.18076 1.2668 0.25521 1.912 0.22022 0.9209 0.09009 0.5405 0.53054 0.5305 1.26128 -0.2102 4.11416 -0.1001 4.53458 -1.001 4.7548 -0.3704 0.09009 0.5305 0 -8.0081 0.22022 -0.72368 0.08931 -1.45779 0.03833 -2.16219 -0.15015 -0.43043 -0.35035 -0.36036 -1.48149 -0.41041 -2.0821 -0.06006 -1.76178 -0.16016 -2.56259 0.2002 -3.32336 0.23023 -0.50051 0.38039 -0.55056 0.5906 -0.60061 0.66067 -0.14014 3.4134 -0.22022 3.8038 -0.42042 0.3904 -0.20021 0.2403 -0.41042 0.2703 -0.5906 0.2202 -1.421437 0.8809 -1.461477 2.3724 -1.451467 0.0797 0 0.156 -0.031639 0.2124 -0.087957 0.0563 -0.056318 0.0879 -0.132701 0.0879 -0.212347 0 -0.079645 -0.0316 -0.156028 -0.0879 -0.2123462 -0.0564 -0.0563179 -0.1327 -0.08795692 -0.2124 -0.08795692C12.412 -0.0151844 11.411 -0.0151844 10.8003 0.895736c-0.1838 0.340314 -0.309 0.709184 -0.3703 1.091104 -3.35342 0.1001 -3.83391 0.14014 -4.27435 0.55056 -0.37787 0.4122 -0.64933 0.91046 -0.7908 1.45146 -0.21888 1.67999 -0.1919 3.3829 0.08008 5.05511 0.1096 0.35042 0.32364 0.65898 0.61345 0.8844 0.28982 0.22543 0.64158 0.35693 1.00819 0.37683 0.68069 0.1102 0.87088 0.0801 8.23833 -0.1601 1.1512 0 2.5926 0 3.1031 -1.11114 0.2311 -0.6549 0.3331 -1.34837 0.3003 -2.04206 0.1118 -1.3332 0.0951 -2.67406 -0.05 -4.00405Z" clip-rule="evenodd" vector-effect="non-scaling-stroke" stroke="#f1f5f9"/>
          <path fill="none" fill-rule="evenodd" d="M12.2917 3.68854c-0.6505 0.20511 -1.2159 0.61754 -1.61 1.17427 -0.394 0.55673 -0.595 1.22715 -0.5722 1.90885 0.1101 1.72174 4.0041 3.13316 5.4055 0.11011 0.8609 -1.89192 -1.3414 -3.82387 -3.2233 -3.19323Zm2.5026 1.93195c0.0258 0.40017 -0.0849 0.79726 -0.314 1.12636 -0.2291 0.32911 -0.5631 0.57076 -0.9473 0.68547 -1.001 0.34035 -2.2723 -0.36036 -2.3123 -0.75075 -0.0531 -0.4573 0.0491 -0.91916 0.2903 -1.31133 0.1557 -0.31872 0.4035 -0.58335 0.7113 -0.75964 0.3079 -0.17629 0.6615 -0.25612 1.0152 -0.22916 0.3537 0.02696 0.6912 0.15947 0.9687 0.38037 0.2776 0.22091 0.4824 0.52004 0.5881 0.85868Z" clip-rule="evenodd" vector-effect="non-scaling-stroke" stroke="#f1f5f9"/>
          <path fill="none" fill-rule="evenodd" d="M8.16777 1.20609c0.16593 -0.02939 0.32977 -0.06951 0.4905 -0.12012C12.2619 -0.195328 6.7063 0.195067 6.73633 0.755634c0.02002 0.390396 1.07108 0.490496 1.43144 0.450456Z" clip-rule="evenodd" vector-effect="non-scaling-stroke" stroke="#f1f5f9"/>
        </g>
      </g>
    </g>
    <g transform="translate(-330, -34)">
      <text id="ITEM_1_HEAD" text-anchor="start" font-weight="bold" font-size="29" fill="var(--inverse-text)" x="0.0" y="-10.0" data-bg-id="ITEM_1_BG" fill-opacity="1.0" style="font-size: 30px; font-family: Inter, Segoe UI, Kalam, Roboto, Helvetica, Arial, sans-serif; font-weight: 700; letter-spacing:-0.4px;" data-final-font-size="30">
        <tspan x="0.0" dy="33.03px">Sensor Calibration</tspan>
      </text>
      <rect id="ITEM_1_HEAD_FRAME" x="0" y="-10" width="846" height="42" fill="none"/>
      <text id="ITEM_1_BODY" text-anchor="start" font-size="21" fill="var(--inverse-text)" x="0.0" y="30.0" data-bg-id="ITEM_1_BG" style="font-size: 26px; font-family: Inter, Segoe UI, Kalam, Roboto, Helvetica, Arial, sans-serif; font-weight: 400;" data-final-font-size="26">
        <tspan x="0.0" dy="42.18px">Correct for lens distortion and temperature sensitivity</tspan>
      </text>
      <rect id="ITEM_1_BODY_FRAME" x="0" y="30" width="846" height="114" fill="none"/>
    </g>
  </g>
  <g transform="translate(960.0, 390.0)">
    <rect id="ITEM_2_BG" x="-600" y="-64" width="1200" height="184" rx="18" fill="var(--accent-4)" stroke="var(--accent-2)" filter="url(#svgaa1ba470-shadow)" stroke-width="3" fill-opacity="1.0"/>
    <g transform="translate(-480.0, 0.0)">
      <circle r="45" fill="var(--background)" opacity="0.3"/>
      <circle id="ITEM_2_PAD" cx="0" cy="0" r="42" fill="var(--icon-pad-bg)" stroke="var(--primary-text)" opacity="0.9" fill-opacity="0.9" stroke-width="2"/>
      <circle id="ITEM_2_PAD_INNER" cx="0" cy="0" r="32.76" fill="var(--accent-4)" fill-opacity="0.22"/>
      <circle cx="0" cy="0" r="34" fill="none" stroke="var(--accent-1)" stroke-width="3" stroke-dasharray="6 4"/>
      <g id="ITEM_2_ICON" transform="translate(-34, -34)" data-icon-size="68" stroke-dasharray="6 4">
        <g transform="translate(0.0,3.552713678800501e-15) scale(4.857142857142857)" vector-effect="non-scaling-stroke" stroke-width="2.53" stroke-linecap="round" stroke-linejoin="round" stroke-opacity="1.0">
          <path id="Vector" fill="none" d="M1.5 5h11v7c0 0.2652 -0.1054 0.5196 -0.2929 0.7071S11.7652 13 11.5 13h-9c-0.26522 0 -0.51957 -0.1054 -0.70711 -0.2929C1.60536 12.5196 1.5 12.2652 1.5 12V5Z" vector-effect="non-scaling-stroke" stroke="#f1f5f9"/>
          <path id="Vector_2" fill="none" d="M13.5 4V2c0 -0.55228 -0.4477 -1 -1 -1l-11 0c-0.552285 0 -1 0.44772 -1 1v2c0 0.55228 0.447715 1 1 1l11 0c0.5523 0 1 -0.44772 1 -1Z" vector-effect="non-scaling-stroke" stroke="#f1f5f9"/>
          <path id="Vector_3" stroke="#f1f5f9" d="M1.5 5h11v7c0 0.2652 -0.1054 0.5196 -0.2929 0.7071S11.7652 13 11.5 13h-9c-0.26522 0 -0.51957 -0.1054 -0.70711 -0.2929C1.60536 12.5196 1.5 12.2652 1.5 12V5v0Z" vector-effect="non-scaling-stroke" fill="none"/>
          <path id="Vector_4" stroke="#f1f5f9" d="M13.5 4V2c0 -0.55228 -0.4477 -1 -1 -1l-11 0c-0.552285 0 -1 0.44772 -1 1v2c0 0.55228 0.447715 1 1 1l11 0c0.5523 0 1 -0.44772 1 -1Z" vector-effect="non-scaling-stroke" fill="none"/>
          <path id="Vector_5" stroke="#f1f5f9" d="M5.5 8h3" vector-effect="non-scaling-stroke" fill="none"/>
        </g>
      </g>
    </g>
    <g transform="translate(-330, -34)">
      <text id="ITEM_2_HEAD" text-anchor="start" font-weight="bold" font-size="29" fill="var(--primary-text)" x="0.0" y="-10.0" data-bg-id="ITEM_2_BG" fill-opacity="1.0" style="font-size: 30px; font-family: Inter, Segoe UI, Kalam, Roboto, Helvetica, Arial, sans-serif; font-weight: 700; letter-spacing:-0.4px;" data-final-font-size="30">
        <tspan x="0.0" dy="33.03px">Metadata Integrity</tspan>
      </text>
      <rect id="ITEM_2_HEAD_FRAME" x="0" y="-10" width="846" height="42" fill="none"/>
      <text id="ITEM_2_BODY" text-anchor="start" font-size="21" fill="var(--primary-text)" x="0.0" y="30.0" data-bg-id="ITEM_2_BG" style="font-size: 26px; font-family: Inter, Segoe UI, Kalam, Roboto, Helvetica, Arial, sans-serif; font-weight: 400;" data-final-font-size="26">
        <tspan x="0.0" dy="42.18px">Ensure accurate time stamps and sensor settings records</tspan>
      </text>
      <rect id="ITEM_2_BODY_FRAME" x="0" y="30" width="846" height="114" fill="none"/>
    </g>
  </g>
  <g transform="translate(960.0, 560.0)">
    <rect id="ITEM_3_BG" x="-600" y="-64" width="1200" height="184" rx="18" fill="var(--accent-5)" stroke="var(--accent-3)" filter="url(#svgaa1ba470-shadow)" stroke-width="3" fill-opacity="1.0"/>
    <g transform="translate(-480.0, 0.0)">
      <circle r="45" fill="var(--background)" opacity="0.3"/>
      <circle id="ITEM_3_PAD" cx="0" cy="0" r="42" fill="var(--icon-pad-bg)" stroke="var(--primary-text)" opacity="0.9" fill-opacity="0.9" stroke-width="2"/>
      <circle id="ITEM_3_PAD_INNER" cx="0" cy="0" r="32.76" fill="var(--accent-5)" fill-opacity="0.22"/>
      <circle cx="0" cy="0" r="34" fill="none" stroke="var(--accent-2)" stroke-width="3" stroke-dasharray="6 4"/>
      <g id="ITEM_3_ICON" transform="translate(-34, -34)" data-icon-size="68" stroke-dasharray="6 4">
        <g transform="translate(-4.857142857142857,-4.857142857142857) scale(2.4285714285714284)">
          <path d="M2 5C2 3.34315 3.34315 2 5 2H27C28.6569 2 30 3.34315 30 5V27C30 28.6569 28.6569 30 27 30H5C3.34315 30 2 28.6569 2 27V5Z" fill="#D3D3D3"/>
          <path d="M2 15H14C14.5523 15 15 14.5523 15 14V10C15 9.44772 14.5523 9 14 9H2V15Z" fill="#FF6723"/>
          <path d="M2 23V17H6C6.55228 17 7 17.4477 7 18V22C7 22.5523 6.55228 23 6 23H2Z" fill="#FF6723"/>
          <path d="M15 30V26C15 25.4477 14.5523 25 14 25H2V27C2 28.6569 3.34315 30 5 30H15Z" fill="#FF6723"/>
          <path d="M30 25H18C17.4477 25 17 25.4477 17 26V30H27C28.6569 30 30 28.6569 30 27V25Z" fill="#FF6723"/>
          <path d="M30 17V23H26C25.4477 23 25 22.5523 25 22V18C25 17.4477 25.4477 17 26 17H30Z" fill="#FF6723"/>
          <path d="M30 9H18C17.4477 9 17 9.44772 17 10V14C17 14.5523 17.4477 15 18 15H30V9Z" fill="#FF6723"/>
          <path d="M25 2V6C25 6.55228 25.4477 7 26 7H30V5C30 3.34315 28.6569 2 27 2H25Z" fill="#FF6723"/>
          <path d="M9 2V6C9 6.55228 9.44772 7 10 7H22C22.5523 7 23 6.55228 23 6V2H9Z" fill="#FF6723"/>
          <path d="M7 2H5C3.34315 2 2 3.34315 2 5V7H6C6.55228 7 7 6.55228 7 6V2Z" fill="#FF6723"/>
          <path d="M10 17C9.44772 17 9 17.4477 9 18V22C9 22.5523 9.44772 23 10 23H22C22.5523 23 23 22.5523 23 22V18C23 17.4477 22.5523 17 22 17H10Z" fill="#FF6723"/>
        </g>
      </g>
    </g>
    <g transform="translate(-330, -34)">
      <text id="ITEM_3_HEAD" text-anchor="start" font-weight="bold" font-size="29" fill="var(--primary-text)" x="0.0" y="-10.0" data-bg-id="ITEM_3_BG" fill-opacity="1.0" style="font-size: 30px; font-family: Inter, Segoe UI, Kalam, Roboto, Helvetica, Arial, sans-serif; font-weight: 700; letter-spacing:-0.4px;" data-final-font-size="30">
        <tspan x="0.0" dy="33.03px">Baseline Data</tspan>
      </text>
      <rect id="ITEM_3_HEAD_FRAME" x="0" y="-10" width="846" height="42" fill="none"/>
      <text id="ITEM_3_BODY" text-anchor="start" font-size="21" fill="var(--primary-text)" x="0.0" y="30.0" data-bg-id="ITEM_3_BG" style="font-size: 26px; font-family: Inter, Segoe UI, Kalam, Roboto, Helvetica, Arial, sans-serif; font-weight: 400;" data-final-font-size="26">
        <tspan x="0.0" dy="42.18px">Establish what normal phenomena look like first</tspan>
      </text>
      <rect id="ITEM_3_BODY_FRAME" x="0" y="30" width="846" height="114" fill="none"/>
    </g>
  </g>
  <g transform="translate(960.0, 730.0)">
    <rect id="ITEM_4_BG" x="-600" y="-64" width="1200" height="184" rx="18" fill="var(--accent-6)" stroke="var(--accent-4)" filter="url(#svgaa1ba470-shadow)" stroke-width="3" fill-opacity="1.0"/>
    <g transform="translate(-480.0, 0.0)">
      <circle r="45" fill="var(--background)" opacity="0.3"/>
      <circle id="ITEM_4_PAD" cx="0" cy="0" r="42" fill="var(--icon-pad-bg)" stroke="var(--primary-text)" opacity="0.9" fill-opacity="0.9" stroke-width="2"/>
      <circle id="ITEM_4_PAD_INNER" cx="0" cy="0" r="32.76" fill="var(--accent-6)" fill-opacity="0.22"/>
      <circle cx="0" cy="0" r="34" fill="none" stroke="var(--accent-3)" stroke-width="3" stroke-dasharray="6 4"/>
      <g id="ITEM_4_ICON" transform="translate(-34, -34)" data-icon-size="68" stroke-dasharray="6 4">
        <g transform="translate(-4.857142857142857,-6.071428571428569) scale(2.4285714285714284)">
          <path d="M22.5247 17.94C26.6502 17.94 29.9947 14.5956 29.9947 10.47C29.9947 6.34443 26.6502 3 22.5247 3C18.3991 3 15.0547 6.34443 15.0547 10.47C15.0547 14.5956 18.3991 17.94 22.5247 17.94Z" fill="#533566"/>
          <path d="M2.64445 29.2101C1.81445 28.3301 1.78446 26.9601 2.56446 26.0401L15.1045 11.3401L21.2145 17.8201L5.80445 29.4801C4.84445 30.2101 3.47445 30.0901 2.64445 29.2101Z" fill="#9B9B9B"/>
          <path d="M18.9958 4.00515L28.9358 14.5552C29.5958 15.2552 29.5658 16.3552 28.8658 17.0051C28.1658 17.6651 27.0758 17.6352 26.4158 16.9352L16.4758 6.38515C15.8158 5.68515 15.8458 4.59517 16.5458 3.93517C17.2458 3.27517 18.3358 3.30515 18.9958 4.00515ZM15.4146 18.5302C15.4146 19.342 14.7565 20.0002 13.9446 20.0002C13.1328 20.0002 12.4746 19.342 12.4746 18.5302C12.4746 17.7183 13.1328 17.0602 13.9446 17.0602C14.7565 17.0602 15.4146 17.7183 15.4146 18.5302Z" fill="#BEBEBE"/>
        </g>
      </g>
    </g>
    <g transform="translate(-330, -34)">
      <text id="ITEM_4_HEAD" text-anchor="start" font-weight="bold" font-size="29" fill="var(--inverse-text)" x="0.0" y="-10.0" data-bg-id="ITEM_4_BG" fill-opacity="1.0" style="font-size: 30px; font-family: Inter, Segoe UI, Kalam, Roboto, Helvetica, Arial, sans-serif; font-weight: 700; letter-spacing:-0.4px;" data-final-font-size="30">
        <tspan x="0.0" dy="33.03px">Multiple Measurements</tspan>
      </text>
      <rect id="ITEM_4_HEAD_FRAME" x="0" y="-10" width="846" height="42" fill="none"/>
      <text id="ITEM_4_BODY" text-anchor="start" font-size="21" fill="var(--inverse-text)" x="0.0" y="30.0" data-bg-id="ITEM_4_BG" style="font-size: 26px; font-family: Inter, Segoe UI, Kalam, Roboto, Helvetica, Arial, sans-serif; font-weight: 400;" data-final-font-size="26">
        <tspan x="0.0" dy="42.18px">Verify sightings using diverse sensor modalities</tspan>
      </text>
      <rect id="ITEM_4_BODY_FRAME" x="0" y="30" width="846" height="114" fill="none"/>
    </g>
  </g>
  <g transform="translate(960.0, 900.0)">
    <rect id="ITEM_5_BG" x="-600" y="-64" width="1200" height="184" rx="18" fill="var(--accent-1)" stroke="var(--accent-5)" filter="url(#svgaa1ba470-shadow)" stroke-width="3" fill-opacity="1.0"/>
    <g transform="translate(-480.0, 0.0)">
      <circle r="45" fill="var(--background)" opacity="0.3"/>
      <circle id="ITEM_5_PAD" cx="0" cy="0" r="42" fill="var(--icon-pad-bg)" stroke="var(--primary-text)" opacity="0.9" fill-opacity="0.9" stroke-width="2"/>
      <circle id="ITEM_5_PAD_INNER" cx="0" cy="0" r="32.76" fill="var(--accent-1)" fill-opacity="0.22"/>
      <circle cx="0" cy="0" r="34" fill="none" stroke="var(--accent-4)" stroke-width="3" stroke-dasharray="6 4"/>
      <g id="ITEM_5_ICON" transform="translate(-34, -34)" data-icon-size="68" stroke-dasharray="6 4">
        <g transform="translate(-4.857142857142856,-4.857142857142857) scale(2.4285714285714284)">
          <path d="M13.6376 3.20168C14.811 1.61132 17.1889 1.61132 18.3624 3.20168V3.20168C19.1081 4.21232 20.4141 4.63667 21.6114 4.25735V4.25735C23.4955 3.66046 25.4193 5.05815 25.4338 7.03451V7.03451C25.4431 8.29045 26.2502 9.4014 27.4419 9.79831V9.79831C29.317 10.4229 30.0518 12.6844 28.9019 14.2918V14.2918C28.1712 15.3134 28.1712 16.6866 28.9019 17.7081V17.7081C30.0518 19.3155 29.317 21.577 27.4419 22.2016V22.2016C26.2502 22.5985 25.4431 23.7095 25.4338 24.9654V24.9654C25.4193 26.9418 23.4955 28.3395 21.6114 27.7426V27.7426C20.4141 27.3633 19.1081 27.7876 18.3624 28.7982V28.7982C17.1889 30.3886 14.811 30.3886 13.6376 28.7982V28.7982C12.8919 27.7876 11.5859 27.3633 10.3886 27.7426V27.7426C8.50444 28.3395 6.58068 26.9418 6.56613 24.9654V24.9654C6.55689 23.7095 5.74973 22.5985 4.55812 22.2016V22.2016C2.68299 21.577 1.94818 19.3155 3.09808 17.7081V17.7081C3.82882 16.6866 3.82882 15.3134 3.09808 14.2918V14.2918C1.94818 12.6844 2.68299 10.4229 4.55812 9.79831V9.79831C5.74973 9.4014 6.55689 8.29045 6.56613 7.03451V7.03451C6.58068 5.05815 8.50444 3.66046 10.3886 4.25735V4.25735C11.5859 4.63667 12.8919 4.21232 13.6376 3.20168V3.20168Z" fill="#FF822D"/>
          <path d="M25.0623 21.2321C22.1727 26.237 15.7729 27.9518 10.768 25.0622C5.76307 22.1726 4.04825 15.7728 6.93785 10.7679C9.82744 5.76298 16.2272 4.04817 21.2321 6.93776C26.2371 9.82736 27.9519 16.2271 25.0623 21.2321Z" fill="#FCD53F"/>
        </g>
      </g>
    </g>
    <g transform="translate(-330, -34)">
      <text id="ITEM_5_HEAD" text-anchor="start" font-weight="bold" font-size="29" fill="var(--primary-text)" x="0.0" y="-10.0" data-bg-id="ITEM_5_BG" fill-opacity="1.0" style="font-size: 30px; font-family: Inter, Segoe UI, Kalam, Roboto, Helvetica, Arial, sans-serif; font-weight: 700; letter-spacing:-0.4px;" data-final-font-size="30">
        <tspan x="0.0" dy="33.03px">Environmental Context</tspan>
      </text>
      <rect id="ITEM_5_HEAD_FRAME" x="0" y="-10" width="846" height="42" fill="none"/>
      <text id="ITEM_5_BODY" text-anchor="start" font-size="21" fill="var(--primary-text)" x="0.0" y="30.0" data-bg-id="ITEM_5_BG" style="font-size: 26px; font-family: Inter, Segoe UI, Kalam, Roboto, Helvetica, Arial, sans-serif; font-weight: 400;" data-final-font-size="26">
        <tspan x="0.0" dy="42.18px">Account for haze, clouds, and solar glint</tspan>
      </text>
      <rect id="ITEM_5_BODY_FRAME" x="0" y="30" width="846" height="114" fill="none"/>
    </g>
  </g>
</svg>
