<?xml version='1.0' encoding='utf-8'?>
<svg xmlns="http://www.w3.org/2000/svg" width="1920" height="1080" viewBox="0 0 1920 1080" data-theme="dark">
  <style>
        @font-face {
            font-family: 'Inter';
            src: url('assets/fonts/Inter-Regular.ttf') format('truetype');
            font-weight: 400;
            font-style: normal;
            font-display: swap;
        }
        @font-face {
            font-family: 'Inter';
            src: url('assets/fonts/Inter-Bold.ttf') format('truetype');
            font-weight: 600;
            font-style: normal;
            font-display: swap;
        }
        @font-face {
            font-family: 'Inter';
            src: url('assets/fonts/Inter-Bold.ttf') format('truetype');
            font-weight: 800;
            font-style: normal;
            font-display: swap;
        }
        
:root {
    --background: #0f172a;
    --panel: #1e293b;
    --primary-text: #f1f5f9;
    --muted-text: #94a3b8;
    --inverse-text: #0f172a;
    --border: #334155;
    --shadow-color: #000000;
    --icon-pad-bg: #1e293b;
    --art-glow: #7dd3fc;
    --art-glow-opacity: 0.18;
    --art-sheen: #ffffff;
    --art-sheen-opacity: 0.18;
    --art-shadow: #000000;
    --art-shadow-opacity: 0.28;
    --art-muted-line: #64748b;
    --art-panel-tint: #1e293b;
    --font-family: 'Inter', 'Segoe UI', 'Kalam', Roboto, Helvetica, Arial, sans-serif;
    --radius-xl: 16px;
    --font-family-headline: 'Inter', 'Segoe UI', 'Kalam', Roboto, Helvetica, Arial, sans-serif;
    --font-family-body: 'Inter', 'Segoe UI', 'Kalam', Roboto, Helvetica, Arial, sans-serif;
    --font-heading: 'Inter', 'Segoe UI', 'Kalam', Roboto, Helvetica, Arial, sans-serif;
    --font-body: 'Inter', 'Segoe UI', 'Kalam', Roboto, Helvetica, Arial, sans-serif;
    --font-size-h1: 56px;
    --font-size-h2: 40px;
    --font-size-h3: 28px;
    --font-size-body: 24px;
    --font-size-caption: 18px;
    --secondary-text: var(--muted-text);
    --panel-border: var(--border);
    --font-weight-normal: 400;
    --font-weight-medium: 500;
    --font-weight-semibold: 600;
    --font-weight-bold: 700;
    --spacing-gutter-pct: 0.07;
    --spacing-top-pct: 0.15;
    --spacing-bottom-pct: 0.07;
    --spacing-title-y-pct: 0.055;
    --accent-1: #22d3ee;
    --accent-2: #38bdf8;
    --accent-3: #60a5fa;
    --accent-4: #818cf8;
    --accent-5: #a78bfa;
    --accent-6: #2dd4bf;
}
:root[data-theme="dark"] {
    --background: #0f172a;
    --panel: #1e293b;
    --primary-text: #f1f5f9;
    --muted-text: #94a3b8;
    --inverse-text: #0f172a;
    --border: #334155;
    --shadow-color: #000000;
    --icon-pad-bg: #1e293b;
    --art-glow: #7dd3fc;
    --art-glow-opacity: 0.18;
    --art-sheen: #ffffff;
    --art-sheen-opacity: 0.18;
    --art-shadow: #000000;
    --art-shadow-opacity: 0.28;
    --art-muted-line: #64748b;
    --art-panel-tint: #1e293b;
    --accent-1: #22d3ee;
    --accent-2: #38bdf8;
    --accent-3: #60a5fa;
    --accent-4: #818cf8;
    --accent-5: #a78bfa;
    --accent-6: #2dd4bf;
}
:root[data-theme="light"] {
    --background: #f8fafc;
    --panel: #ffffff;
    --primary-text: #0f172a;
    --muted-text: #64748b;
    --inverse-text: #ffffff;
    --border: #e2e8f0;
    --shadow-color: #000000;
    --icon-pad-bg: #1e293b;
    --art-glow: #0891b2;
    --art-glow-opacity: 0.10;
    --art-sheen: #ffffff;
    --art-sheen-opacity: 0.34;
    --art-shadow: #0f172a;
    --art-shadow-opacity: 0.14;
    --art-muted-line: #94a3b8;
    --art-panel-tint: #f1f5f9;
    --accent-1: #0891b2;
    --accent-2: #0284c7;
    --accent-3: #2563eb;
    --accent-4: #4f46e5;
    --accent-5: #7c3aed;
    --accent-6: #0d9488;
}</style>
  <rect x="0" y="0" width="1.92E+3" height="1.08E+3" fill="#252a34" stroke="none" id="programmatic_background"/>
  <line id="HEADER_DECOR" x1="960.0" x2="1080.0" y1="90.0" y2="90.0" stroke="var(--accent-1)" stroke-width="6" stroke-linecap="round"/>
  <defs>
    <pattern id="svg10b1b04a-napkin-hatch" patternUnits="userSpaceOnUse" width="12" height="12">
      <path d="M -3 12 L 12 -3 M 0 15 L 15 0" fill="none" stroke="var(--primary-text)" stroke-width="1" stroke-opacity="0.05"/>
    </pattern>
    <filter id="svg10b1b04a-shadow" x="-30%" y="-30%" width="160%" height="160%">
      <feDropShadow dx="0" dy="2" stdDeviation="3" flood-color="#000000" flood-opacity="0.08"/>
      <feDropShadow dx="0" dy="6" stdDeviation="10" flood-color="#000000" flood-opacity="0.12"/>
    </filter>
    <radialGradient id="svg10b1b04a-universal-edge-vignette" cx="50%" cy="50%" r="72%">
      <stop offset="0%" stop-color="var(--background)" stop-opacity="0"/>
      <stop offset="72%" stop-color="var(--background)" stop-opacity="0.12"/>
      <stop offset="100%" stop-color="var(--primary-text)" stop-opacity="0.08"/>
    </radialGradient>
    <linearGradient id="svg10b1b04a-universal-surface-sheen" x1="0%" y1="0%" x2="100%" y2="100%">
      <stop offset="0%" stop-color="var(--art-sheen)" stop-opacity="var(--art-sheen-opacity)"/>
      <stop offset="46%" stop-color="var(--art-sheen)" stop-opacity="0.035"/>
      <stop offset="100%" stop-color="var(--art-panel-tint)" stop-opacity="0.14"/>
    </linearGradient>
    <radialGradient id="svg10b1b04a-universal-icon-aura" cx="50%" cy="42%" r="64%">
      <stop offset="0%" stop-color="var(--art-glow)" stop-opacity="var(--art-glow-opacity)"/>
      <stop offset="100%" stop-color="var(--background)" stop-opacity="0"/>
    </radialGradient>
    <filter id="svg10b1b04a-text-glow" x="-20%" y="-20%" width="140%" height="140%">
      <feDropShadow dx="0" dy="0" stdDeviation="2" flood-color="#000000" flood-opacity="0.4"/>
    </filter>
    <marker id="svg10b1b04a-arrowhead" markerWidth="10" markerHeight="7" refX="9" refY="3.5" orient="auto" markerUnits="strokeWidth">
      <polygon points="0 0, 10 3.5, 0 7" fill="var(--muted-text)" opacity="0.6"/>
    </marker>
  </defs>
  <rect width="100%" height="100%" fill="var(--background)" id="CANVAS_BG"/>
  <rect width="100%" height="100%" fill="url(#svg10b1b04a-napkin-hatch)"/>
  <rect id="UNIVERSAL_EDGE_VIGNETTE" width="100%" height="100%" fill="url(#svg10b1b04a-universal-edge-vignette)" opacity="0.62"/>
  <text id="TITLE" x="960.0" y="59" text-anchor="middle" font-size="63" font-weight="800" fill="#f1f5f9" style="font-size: 60px; font-family: Inter, Segoe UI, Kalam, Roboto, Helvetica, Arial, sans-serif; font-weight: 700; letter-spacing:-1.2px;" data-final-font-size="60">
    <tspan x="960.0" dy="68.00px">Root Causes of False UAP Detections</tspan>
  </text>
  <rect id="TITLE_FRAME" x="134" y="59" width="1652" height="103" fill="none"/>
  <line x1="120" y1="600" x2="1470" y2="600" stroke="var(--primary-text)" stroke-width="12" stroke-linecap="round"/>
  <g transform="translate(1470.0, 600.0) translate(0, 25)">
    <path d="M 0 0 L 180 -90 L 180 90 Z" fill="var(--panel)" stroke="var(--primary-text)" stroke-width="6"/>
    <text x="105" y="15" text-anchor="middle" font-weight="bold" font-size="30" fill="var(--primary-text)">RESULT</text>
  </g>
  <line x1="300" y1="600" x2="375" y2="475" stroke="var(--primary-text)" stroke-width="6"/>
  <g transform="translate(375.0, 300.0) translate(0, 25)">
    <rect x="-180" y="-120" width="360" height="270" rx="18" fill="var(--background)" stroke="var(--accent-1)" stroke-width="4.5" filter="url(#svg10b1b04a-shadow)"/>
    <rect id="ITEM_1_TEXT_BG" x="-198" y="41" width="396" height="179" rx="22" fill="var(--panel)" fill-opacity="0.94" stroke="var(--accent-1)" stroke-width="2"/>
    <text id="ITEM_1_HEAD" text-anchor="middle" font-weight="bold" font-size="30" fill="var(--accent-1)" x="0.0" y="55.0" data-bg-id="ITEM_1_TEXT_BG" fill-opacity="1.0" stroke="none" style="font-size: 30px; font-family: Inter, Segoe UI, Kalam, Roboto, Helvetica, Arial, sans-serif; font-weight: 700; letter-spacing:-0.4px;" data-final-font-size="30">
      <tspan x="0.0" dy="28.25px">Wind Dynamics</tspan>
    </text>
    <rect id="ITEM_1_HEAD_FRAME" x="-165" y="55.0" width="330" height="40.0" fill="none"/>
    <text id="ITEM_1_BODY" text-anchor="middle" font-size="21" fill="var(--primary-text)" x="0.0" y="82.0" data-bg-id="ITEM_1_TEXT_BG" style="font-size: 26px; font-family: Inter, Segoe UI, Kalam, Roboto, Helvetica, Arial, sans-serif; font-weight: 400;" data-final-font-size="26">
      <tspan x="0.0" dy="32.84px">Shakes camera masts</tspan>
      <tspan x="0.0" dy="29.90px">and produces apparent motion</tspan>
    </text>
    <rect id="ITEM_1_BODY_FRAME" x="-180" y="82" width="360" height="120" fill="none"/>
    <circle id="ITEM_1_PAD" cx="20.0" cy="-45.0" r="40.0" fill="var(--icon-pad-bg)" stroke="var(--primary-text)" opacity="0.9" fill-opacity="0.9" stroke-width="2"/>
    <circle id="ITEM_1_PAD_INNER" cx="20.0" cy="-45.0" r="31.20" fill="var(--accent-1)" fill-opacity="0.22"/>
    <circle cx="20.0" cy="-45.0" r="32.0" fill="none" stroke="var(--accent-1)" stroke-width="3" stroke-dasharray="6 4"/>
    <g id="ITEM_1_ICON" transform="translate(-4.0, -69.0)" data-icon-size="48" stroke-dasharray="6 4">
      <g transform="translate(-8.933333333333339,-12.977777777777781) scale(3.081481481481482)" vector-effect="non-scaling-stroke" fill="#f1f5f9" fill-opacity="1.0" stroke="none">
        <path fill="#f1f5f9" d="m13.33 11.67l2.88 2.91c1.41-1.42 0-2.83 0-2.83l-1.49-1.51c.18-.38.28-.8.28-1.24c0-1.05-.54-1.97-1.36-2.5L15 2.11c-1.91-.58-2.5 1.33-2.5 1.33l-.81 2.59c-1.23.13-2.23.97-2.56 2.15L4.67 9.63c.64 1.9 2.53 1.27 2.53 1.27l2.07-.67c.34.74.96 1.31 1.73 1.59V19s-2 0-2 2v1h6v-1s0-2-2-2v-7.18c.12-.04.23-.1.33-.15M10.5 9A1.5 1.5 0 0 1 12 7.5A1.5 1.5 0 0 1 13.5 9a1.5 1.5 0 0 1-1.5 1.5A1.5 1.5 0 0 1 10.5 9" vector-effect="non-scaling-stroke" stroke="none"/>
      </g>
    </g>
  </g>
  <line x1="750" y1="600" x2="825" y2="475" stroke="var(--primary-text)" stroke-width="6"/>
  <g transform="translate(825.0, 300.0) translate(0, 25)">
    <rect x="-180" y="-120" width="360" height="270" rx="18" fill="var(--background)" stroke="var(--accent-2)" stroke-width="4.5" filter="url(#svg10b1b04a-shadow)"/>
    <rect id="ITEM_2_TEXT_BG" x="-198" y="41" width="396" height="179" rx="22" fill="var(--panel)" fill-opacity="0.94" stroke="var(--accent-2)" stroke-width="2"/>
    <text id="ITEM_2_HEAD" text-anchor="middle" font-weight="bold" font-size="30" fill="var(--accent-2)" x="0.0" y="55.0" data-bg-id="ITEM_2_TEXT_BG" fill-opacity="1.0" stroke="none" style="font-size: 30px; font-family: Inter, Segoe UI, Kalam, Roboto, Helvetica, Arial, sans-serif; font-weight: 700; letter-spacing:-0.4px;" data-final-font-size="30">
      <tspan x="0.0" dy="28.25px">Heat Gradients</tspan>
    </text>
    <rect id="ITEM_2_HEAD_FRAME" x="-165" y="55.0" width="330" height="40.0" fill="none"/>
    <text id="ITEM_2_BODY" text-anchor="middle" font-size="21" fill="var(--primary-text)" x="0.0" y="82.0" data-bg-id="ITEM_2_TEXT_BG" style="font-size: 26px; font-family: Inter, Segoe UI, Kalam, Roboto, Helvetica, Arial, sans-serif; font-weight: 400;" data-final-font-size="26">
      <tspan x="0.0" dy="32.84px">Causes shimmering and focus</tspan>
      <tspan x="0.0" dy="29.90px">drift in lenses</tspan>
    </text>
    <rect id="ITEM_2_BODY_FRAME" x="-180" y="82" width="360" height="120" fill="none"/>
    <circle id="ITEM_2_PAD" cx="20.0" cy="-45.0" r="40.0" fill="var(--icon-pad-bg)" stroke="var(--primary-text)" opacity="0.9" fill-opacity="0.9" stroke-width="2"/>
    <circle id="ITEM_2_PAD_INNER" cx="20.0" cy="-45.0" r="31.20" fill="var(--accent-2)" fill-opacity="0.22"/>
    <circle cx="20.0" cy="-45.0" r="32.0" fill="none" stroke="var(--accent-1)" stroke-width="3" stroke-dasharray="6 4"/>
    <g id="ITEM_2_ICON" transform="translate(-4.0, -69.0)" data-icon-size="48" stroke-dasharray="6 4">
      <g transform="translate(-11.65714285714286,-11.65714285714286) scale(2.2285714285714286)">
        <path d="M21.74 16.08L8.83 3.17C7.27 1.61 4.74 1.61 3.17 3.17C1.61 4.73 1.61 7.26 3.17 8.83L16.08 21.74C15.69 23.92 16.34 26.24 18.02 27.92C20.75 30.65 25.19 30.65 27.92 27.92C30.65 25.19 30.65 20.75 27.92 18.02C26.24 16.34 23.92 15.7 21.74 16.08Z" fill="#F4F4F4"/>
        <path d="M4.59 7.42002C3.81 6.64002 3.81 5.37 4.59 4.59C5.37 3.81 6.63 3.81 7.42 4.59L21.1439 18.3139C21.7096 18.0919 22.3255 17.97 22.97 17.97C25.7314 17.97 27.97 20.2085 27.97 22.97C27.97 25.7314 25.7314 27.97 22.97 27.97C20.2085 27.97 17.97 25.7314 17.97 22.97C17.97 22.3255 18.0919 21.7096 18.3139 21.1439L4.59 7.42002Z" fill="#F8312F"/>
        <path d="M10.23 4.59998L8.11 6.71997C7.72 7.10997 7.72 7.74997 8.11 8.12997C8.5 8.51997 9.13 8.51997 9.52 8.12997L11.64 6.00998L10.23 4.59998ZM12.35 10.97L14.47 8.84998L15.88 10.26L13.76 12.38C13.37 12.77 12.74 12.77 12.35 12.38C11.96 11.99 11.96 11.36 12.35 10.97ZM16.59 15.21L18.71 13.09L20.12 14.5L18 16.62C17.61 17.01 16.98 17.01 16.59 16.62C16.2 16.23 16.2 15.6 16.59 15.21Z" fill="black"/>
        <path d="M24.97 23.97C26.0745 23.97 26.97 23.0745 26.97 21.97C26.97 20.8654 26.0745 19.97 24.97 19.97C23.8654 19.97 22.97 20.8654 22.97 21.97C22.97 23.0745 23.8654 23.97 24.97 23.97Z" fill="#FF8687"/>
      </g>
    </g>
  </g>
  <line x1="1200" y1="600" x2="1275" y2="475" stroke="var(--primary-text)" stroke-width="6"/>
  <g transform="translate(1275.0, 300.0) translate(0, 25)">
    <rect x="-180" y="-120" width="360" height="270" rx="18" fill="var(--background)" stroke="var(--accent-3)" stroke-width="4.5" filter="url(#svg10b1b04a-shadow)"/>
    <rect id="ITEM_3_TEXT_BG" x="-198" y="41" width="396" height="179" rx="22" fill="var(--panel)" fill-opacity="0.94" stroke="var(--accent-3)" stroke-width="2"/>
    <text id="ITEM_3_HEAD" text-anchor="middle" font-weight="bold" font-size="30" fill="var(--accent-3)" x="0.0" y="55.0" data-bg-id="ITEM_3_TEXT_BG" fill-opacity="1.0" stroke="none" style="font-size: 30px; font-family: Inter, Segoe UI, Kalam, Roboto, Helvetica, Arial, sans-serif; font-weight: 700; letter-spacing:-0.4px;" data-final-font-size="30">
      <tspan x="0.0" dy="28.25px">Small Creatures</tspan>
    </text>
    <rect id="ITEM_3_HEAD_FRAME" x="-165" y="55.0" width="330" height="40.0" fill="none"/>
    <text id="ITEM_3_BODY" text-anchor="middle" font-size="21" fill="var(--primary-text)" x="0.0" y="82.0" data-bg-id="ITEM_3_TEXT_BG" style="font-size: 26px; font-family: Inter, Segoe UI, Kalam, Roboto, Helvetica, Arial, sans-serif; font-weight: 400;" data-final-font-size="26">
      <tspan x="0.0" dy="32.84px">Moths and spiders create</tspan>
      <tspan x="0.0" dy="29.90px">glowing or moving artifacts</tspan>
    </text>
    <rect id="ITEM_3_BODY_FRAME" x="-180" y="82" width="360" height="120" fill="none"/>
    <circle id="ITEM_3_PAD" cx="20.0" cy="-45.0" r="40.0" fill="var(--icon-pad-bg)" stroke="var(--primary-text)" opacity="0.9" fill-opacity="0.9" stroke-width="2"/>
    <circle id="ITEM_3_PAD_INNER" cx="20.0" cy="-45.0" r="31.20" fill="var(--accent-3)" fill-opacity="0.22"/>
    <circle cx="20.0" cy="-45.0" r="32.0" fill="none" stroke="var(--accent-2)" stroke-width="3" stroke-dasharray="6 4"/>
    <g id="ITEM_3_ICON" transform="translate(-4.0, -69.0)" data-icon-size="48" stroke-dasharray="6 4">
      <g transform="translate(-11.65714285714286,-12.492857142857144) scale(2.2285714285714286)">
        <path d="M2.6272 3.69393C2.79618 3.37207 3.19408 3.24814 3.51593 3.41712L5.11458 4.25644C6.39399 4.92099 7.19817 6.25709 7.19817 7.6999V9.0099C7.19817 9.37341 6.90348 9.6681 6.53997 9.6681C6.17646 9.6681 5.88177 9.37341 5.88177 9.0099V7.6999C5.88177 6.74326 5.34656 5.85986 4.50683 5.42415L4.504 5.42268L2.90401 4.58265C2.58216 4.41367 2.45823 4.01578 2.6272 3.69393Z" fill="#008463"/>
        <path d="M12.8028 3.69393C12.9718 4.01578 12.8478 4.41367 12.526 4.58265L10.9232 5.42416C10.0834 5.85987 9.54822 6.74326 9.54822 7.6999V9.0099C9.54822 9.37341 9.25354 9.6681 8.89002 9.6681C8.52651 9.6681 8.23182 9.37341 8.23182 9.0099V7.6999C8.23182 6.25709 9.036 4.92099 10.3154 4.25644L11.9141 3.41712C12.2359 3.24814 12.6338 3.37207 12.8028 3.69393Z" fill="#008463"/>
        <path d="M12.23 20.9C12.9646 20.9 13.56 20.3045 13.56 19.5699C13.56 18.8354 12.9646 18.24 12.23 18.24C11.4955 18.24 10.9 18.8354 10.9 19.5699C10.9 20.3045 11.4955 20.9 12.23 20.9Z" fill="#008463"/>
        <path d="M14.89 23.56C14.89 24.2945 14.2945 24.89 13.56 24.89C12.8254 24.89 12.23 24.2945 12.23 23.56C12.23 22.8255 12.8254 22.23 13.56 22.23C14.2945 22.23 14.89 22.8255 14.89 23.56Z" fill="#008463"/>
        <path d="M16.22 28.16C16.9546 28.16 17.55 27.5646 17.55 26.83C17.55 26.0955 16.9546 25.5 16.22 25.5C15.4855 25.5 14.89 26.0955 14.89 26.83C14.89 27.5646 15.4855 28.16 16.22 28.16Z" fill="#008463"/>
        <path d="M21.9799 28.02C21.9799 28.7545 21.3845 29.35 20.6499 29.35C19.9154 29.35 19.3199 28.7545 19.3199 28.02C19.3199 27.2854 19.9154 26.6899 20.6499 26.6899C21.3845 26.6899 21.9799 27.2854 21.9799 28.02Z" fill="#008463"/>
        <path d="M26.58 28.02C26.58 28.7545 25.9846 29.35 25.25 29.35C24.5155 29.35 23.92 28.7545 23.92 28.02C23.92 27.2854 24.5155 26.6899 25.25 26.6899C25.9846 26.6899 26.58 27.2854 26.58 28.02Z" fill="#008463"/>
        <path d="M20.36 28.02H26.25C28.28 28.02 29.99 26.3599 29.95 24.3199C29.91 22.3499 28.3 20.7599 26.32 20.7599H21.88C20.92 20.7599 20.08 20.1199 19.83 19.1899L18.24 13.41C17.36 10.2 14.44 7.97998 11.12 7.97998H6.46997C4.91714 7.97998 3.55154 8.95132 3.01326 10.3211L2.32031 11.68L3.01326 12.9165C3.53913 14.2747 4.85724 15.24 6.39997 15.24H9.59997C10.56 15.24 11.4 15.88 11.65 16.81L13.24 22.59C14.12 25.8 17.04 28.02 20.36 28.02Z" fill="#00D26A"/>
        <path d="M2.76997 11.68C2.76049 11.196 2.84949 10.7334 3.01789 10.3093C2.96046 10.2967 2.90093 10.29 2.84 10.29C2.38 10.29 2 10.66 2 11.13V12.11C2 12.57 2.38 12.95 2.84 12.95C2.90122 12.95 2.96103 12.9433 3.01871 12.9305C2.8663 12.5417 2.77892 12.1203 2.76997 11.68Z" fill="#212121"/>
        <path d="M6.03999 11.13C6.03999 10.67 5.65999 10.29 5.19999 10.29C4.72999 10.29 4.35999 10.66 4.35999 11.13V12.11C4.35999 12.57 4.73999 12.95 5.19999 12.95C5.65999 12.95 6.03999 12.57 6.03999 12.11V11.13Z" fill="#212121"/>
      </g>
    </g>
  </g>
  <line x1="525" y1="600" x2="600" y2="725" stroke="var(--primary-text)" stroke-width="6"/>
  <g transform="translate(600.0, 820.0) translate(0, 25)">
    <rect x="-180" y="-120" width="360" height="270" rx="18" fill="var(--background)" stroke="var(--accent-4)" stroke-width="4.5" filter="url(#svg10b1b04a-shadow)"/>
    <rect id="ITEM_4_TEXT_BG" x="-198" y="41" width="396" height="179" rx="22" fill="var(--panel)" fill-opacity="0.94" stroke="var(--accent-4)" stroke-width="2"/>
    <text id="ITEM_4_HEAD" text-anchor="middle" font-weight="bold" font-size="30" fill="var(--accent-4)" x="0.0" y="55.0" data-bg-id="ITEM_4_TEXT_BG" fill-opacity="1.0" stroke="none" style="font-size: 30px; font-family: Inter, Segoe UI, Kalam, Roboto, Helvetica, Arial, sans-serif; font-weight: 700; letter-spacing:-0.4px;" data-final-font-size="30">
      <tspan x="0.0" dy="28.25px">Weather Interference</tspan>
    </text>
    <rect id="ITEM_4_HEAD_FRAME" x="-165" y="55.0" width="330" height="40.0" fill="none"/>
    <text id="ITEM_4_BODY" text-anchor="middle" font-size="21" fill="var(--primary-text)" x="0.0" y="82.0" data-bg-id="ITEM_4_TEXT_BG" style="font-size: 26px; font-family: Inter, Segoe UI, Kalam, Roboto, Helvetica, Arial, sans-serif; font-weight: 400;" data-final-font-size="26">
      <tspan x="0.0" dy="32.84px">Rain and fog trigger motion-</tspan>
      <tspan x="0.0" dy="29.90px">detection software errors</tspan>
    </text>
    <rect id="ITEM_4_BODY_FRAME" x="-180" y="82" width="360" height="120" fill="none"/>
    <circle id="ITEM_4_PAD" cx="20.0" cy="-45.0" r="40.0" fill="var(--icon-pad-bg)" stroke="var(--primary-text)" opacity="0.9" fill-opacity="0.9" stroke-width="2"/>
    <circle id="ITEM_4_PAD_INNER" cx="20.0" cy="-45.0" r="31.20" fill="var(--accent-4)" fill-opacity="0.22"/>
    <circle cx="20.0" cy="-45.0" r="32.0" fill="none" stroke="var(--accent-3)" stroke-width="3" stroke-dasharray="6 4"/>
    <g id="ITEM_4_ICON" transform="translate(-4.0, -69.0)" data-icon-size="48" stroke-dasharray="6 4">
      <g transform="translate(-7.200000000000003,-7.200000000000003) scale(4.457142857142857)" vector-effect="non-scaling-stroke" stroke-width="2.29" stroke-linecap="round" stroke-linejoin="round" stroke-opacity="1.0">
        <path id="Vector" stroke="#f1f5f9" d="m4 11.5 0.5 -1" vector-effect="non-scaling-stroke" fill="none"/>
        <path id="Vector_2" stroke="#f1f5f9" d="m8.5 11.5 0.5 -1" vector-effect="non-scaling-stroke" fill="none"/>
        <path id="Vector_3" stroke="#f1f5f9" d="m5.75 13.5 0.5 -1" vector-effect="non-scaling-stroke" fill="none"/>
        <path id="Vector_4" stroke="#f1f5f9" d="m1.25 13.5 0.5 -1" vector-effect="non-scaling-stroke" fill="none"/>
        <path id="Vector_5" stroke="#f1f5f9" d="m10.25 13.5 0.5 -1" vector-effect="non-scaling-stroke" fill="none"/>
        <path id="Vector_6" fill="none" d="M10.25 8c0.663 0 1.2989 -0.26339 1.7678 -0.73223 0.4688 -0.46885 0.7322 -1.10473 0.7322 -1.76777 0 -0.66304 -0.2634 -1.29893 -0.7322 -1.76777C11.5489 3.26339 10.913 3 10.25 3c-0.57023 0.0019 -1.12324 0.19563 -1.57 0.55 -0.13289 -0.69938 -0.46211 -1.34649 -0.94917 -1.86568 -0.48707 -0.5192 -1.11186 -0.889023 -1.80134 -1.066252C5.24001 0.440839 4.51432 0.463529 3.83726 0.683485 3.1602 0.903442 2.55973 1.31158 2.10605 1.86018c-0.45368 0.54861 -0.74182 1.21502 -0.83076 1.92134 -0.08893 0.70632 0.02502 1.42336 0.32854 2.06731s0.78406 1.1882 1.38546 1.56913C3.5907 7.7989 4.28811 8.00077 5 8h5.25Z" vector-effect="non-scaling-stroke" stroke="#f1f5f9" display="none"/>
        <path id="Vector_7" stroke="#f1f5f9" d="M10.25 8c0.663 0 1.2989 -0.26339 1.7678 -0.73223 0.4688 -0.46885 0.7322 -1.10473 0.7322 -1.76777 0 -0.66304 -0.2634 -1.29893 -0.7322 -1.76777C11.5489 3.26339 10.913 3 10.25 3c-0.57023 0.0019 -1.12324 0.19563 -1.57 0.55 -0.13289 -0.69938 -0.46211 -1.34649 -0.94917 -1.86568 -0.48707 -0.5192 -1.11186 -0.889023 -1.80134 -1.066252C5.24001 0.440839 4.51432 0.463529 3.83726 0.683485 3.1602 0.903442 2.55973 1.31158 2.10605 1.86018c-0.45368 0.54861 -0.74182 1.21502 -0.83076 1.92134 -0.08893 0.70632 0.02502 1.42336 0.32854 2.06731s0.78406 1.1882 1.38546 1.56913C3.5907 7.7989 4.28811 8.00077 5 8h5.25Z" vector-effect="non-scaling-stroke" fill="none" display="none"/>
      </g>
    </g>
  </g>
  <line x1="975" y1="600" x2="1050" y2="725" stroke="var(--primary-text)" stroke-width="6"/>
  <g transform="translate(1050.0, 820.0) translate(0, 25)">
    <rect x="-180" y="-120" width="360" height="270" rx="18" fill="var(--background)" stroke="var(--accent-5)" stroke-width="4.5" filter="url(#svg10b1b04a-shadow)"/>
    <rect id="ITEM_5_TEXT_BG" x="-198" y="41" width="396" height="179" rx="22" fill="var(--panel)" fill-opacity="0.94" stroke="var(--accent-5)" stroke-width="2"/>
    <text id="ITEM_5_HEAD" text-anchor="middle" font-weight="bold" font-size="30" fill="var(--accent-5)" x="0.0" y="55.0" data-bg-id="ITEM_5_TEXT_BG" fill-opacity="1.0" stroke="none" style="font-size: 30px; font-family: Inter, Segoe UI, Kalam, Roboto, Helvetica, Arial, sans-serif; font-weight: 700; letter-spacing:-0.4px;" data-final-font-size="30">
      <tspan x="0.0" dy="28.25px">Microclimates</tspan>
    </text>
    <rect id="ITEM_5_HEAD_FRAME" x="-165" y="55.0" width="330" height="40.0" fill="none"/>
    <text id="ITEM_5_BODY" text-anchor="middle" font-size="21" fill="var(--primary-text)" x="0.0" y="82.0" data-bg-id="ITEM_5_TEXT_BG" style="font-size: 26px; font-family: Inter, Segoe UI, Kalam, Roboto, Helvetica, Arial, sans-serif; font-weight: 400;" data-final-font-size="26">
      <tspan x="0.0" dy="32.84px">Local heat plumes and salt</tspan>
      <tspan x="0.0" dy="29.90px">spray bias data</tspan>
    </text>
    <rect id="ITEM_5_BODY_FRAME" x="-180" y="82" width="360" height="120" fill="none"/>
    <circle id="ITEM_5_PAD" cx="20.0" cy="-45.0" r="40.0" fill="var(--icon-pad-bg)" stroke="var(--primary-text)" opacity="0.9" fill-opacity="0.9" stroke-width="2"/>
    <circle id="ITEM_5_PAD_INNER" cx="20.0" cy="-45.0" r="31.20" fill="var(--accent-5)" fill-opacity="0.22"/>
    <circle cx="20.0" cy="-45.0" r="32.0" fill="none" stroke="var(--accent-4)" stroke-width="3" stroke-dasharray="6 4"/>
    <g id="ITEM_5_ICON" transform="translate(-4.0, -69.0)" data-icon-size="48" stroke-dasharray="6 4">
      <g transform="translate(-9.280000000000003,-7.200000000000001) scale(0.26)" vector-effect="non-scaling-stroke" stroke-width="2.29" stroke-linecap="round" stroke-linejoin="round" stroke-opacity="1.0">
        <polyline points="240 128 96 128 56 48" fill="none" stroke="#f1f5f9" vector-effect="non-scaling-stroke"/>
        <line x1="144" y1="128" x2="104" y2="48" fill="none" stroke="#f1f5f9" vector-effect="non-scaling-stroke"/>
        <line x1="152" y1="48" x2="192" y2="128" fill="none" stroke="#f1f5f9" vector-effect="non-scaling-stroke"/>
        <line x1="96" y1="128" x2="96" y2="192" fill="none" stroke="#f1f5f9" vector-effect="non-scaling-stroke"/>
        <path d="M240,128v56a8,8,0,0,1-8,8H24a8,8,0,0,1-8-8V128L56,48H200Z" fill="none" stroke="#f1f5f9" vector-effect="non-scaling-stroke"/>
        <line x1="76" y1="88" x2="220" y2="88" fill="none" stroke="#f1f5f9" vector-effect="non-scaling-stroke"/>
      </g>
    </g>
  </g>
</svg>
